PathFileType	4	(X/Y/Z)	C:\Users\dbl\Desktop\LZH\BX\Trimmed_bx_n_10_1801.trc
DataRate	CameraRate	NumFrames	NumMarkers	Units	OrigDataRate	OrigDataStartFrame	OrigNumFrames
50.00	50.00	       4	43	mm	50.00	1	       394
Frame#	Time	Top.Head			R.Acromium			L.Acromium			Sternum			R.ASIS			L.ASIS			V.Sacral			R.Thigh.Upper			R.Thigh.Front			R.Thigh.Rear			R.Knee.Lat			R.Knee.Med			R.Shank.Upper			R.Shank.Front			R.Shank.Rear			R.Ankle.Lat			R.Midfoot.Lat			R.Toe.Lat			R.Toe.Tip			R.Toe.Med			R.Ankle.Med			R.Midfoot.Sup			R.Heel			L.Thigh.Upper			L.Thigh.Front			L.Thigh.Rear			L.Knee.Lat			L.Knee.Med			L.Shank.Upper			L.Shank.Front			L.Shank.Rear			L.Ankle.Lat			L.Midfoot.Lat			L.Toe.Lat			L.Toe.Tip			L.Toe.Med			L.Ankle.Med			L.Midfoot.Sup			L.Heel			origin1 front left			origin2 front right			origin 3 back right			origin 4 back leftt			
		X1	Y1	Z1	X2	Y2	Z2	X3	Y3	Z3	X4	Y4	Z4	X5	Y5	Z5	X6	Y6	Z6	X7	Y7	Z7	X8	Y8	Z8	X9	Y9	Z9	X10	Y10	Z10	X11	Y11	Z11	X12	Y12	Z12	X13	Y13	Z13	X14	Y14	Z14	X15	Y15	Z15	X16	Y16	Z16	X17	Y17	Z17	X18	Y18	Z18	X19	Y19	Z19	X20	Y20	Z20	X21	Y21	Z21	X22	Y22	Z22	X23	Y23	Z23	X24	Y24	Z24	X25	Y25	Z25	X26	Y26	Z26	X27	Y27	Z27	X28	Y28	Z28	X29	Y29	Z29	X30	Y30	Z30	X31	Y31	Z31	X32	Y32	Z32	X33	Y33	Z33	X34	Y34	Z34	X35	Y35	Z35	X36	Y36	Z36	X37	Y37	Z37	X38	Y38	Z38	X39	Y39	Z39	X40	Y40	Z40	X41	Y41	Z41	X42	Y42	Z42	X43	Y43	Z43	

1	0.000	-576.19635	266.78912	1831.46277	-635.77338	77.17012	1533.72766	-659.76990	433.30859	1531.17505	-545.85687	260.45459	1350.79370	-531.26196	134.64786	1029.12146	-517.62238	363.16602	1037.98083	-725.30823	256.43442	1042.07678	-585.04498	83.30692	864.85834	-514.69934	153.52928	848.42401	-602.01880	94.74450	737.90759	-649.69714	118.29646	603.70190	-630.46497	226.87227	562.10864	-680.44904	118.08334	541.78162	-601.10602	164.02249	534.24384	-719.49042	118.44907	476.02386	-690.37646	142.42862	214.68834	-614.94470	85.46507	165.64952	-566.48260	66.34482	163.17776	-489.42221	111.22101	158.74763	-537.54297	161.15964	164.50882	-646.65399	221.35349	218.48856	-602.02698	197.75237	170.55429	-729.89465	207.96320	170.70134	-598.73047	443.05453	874.66571	-514.68903	372.08102	842.58600	-622.68378	431.03995	755.07190	-654.79437	410.02536	628.40326	-614.68506	307.16550	575.12164	-660.48639	408.67505	562.53479	-601.66565	361.26459	545.60181	-710.58881	411.74393	509.78003	-682.49402	406.96310	214.64943	-588.83020	458.48315	165.01376	-549.90625	466.61996	161.38405	-488.96127	419.57593	167.45337	-528.07141	377.17154	176.31496	-647.91498	317.24036	207.44759	-599.17908	337.50153	168.27173	-737.86652	337.68600	163.85396	-443.51031	448.49768	147.01918	-450.48126	74.99989	144.29610	-806.38440	82.64966	142.31505	-799.45465	456.82184	145.16379	
2	0.020	-576.29559	266.68604	1831.47888	-636.03064	77.05444	1533.69702	-659.74152	433.24249	1531.20569	-545.85883	260.38434	1350.83130	-531.37128	134.54762	1029.10840	-517.55865	363.13226	1038.00623	-725.23962	256.52542	1042.07556	-585.01569	83.21780	864.88940	-514.68964	153.45969	848.53821	-601.98315	94.55981	738.00739	-649.71747	118.33671	603.57324	-630.64355	226.84381	561.84674	-680.47852	118.12567	541.77148	-601.10370	163.94937	534.18835	-719.52179	118.54327	475.97131	-691.00336	142.70474	214.08908	-614.92181	85.48134	165.65736	-566.53912	66.40257	163.11685	-489.43802	111.23525	158.80443	-537.57355	161.16391	164.59886	-646.32263	221.37971	218.64191	-601.99390	197.75047	170.49838	-729.89575	207.93585	170.73848	-598.49103	442.88162	874.39215	-514.43976	372.02185	842.75623	-622.53009	431.08539	755.03723	-654.64478	409.97238	628.40607	-614.62842	307.21460	575.17218	-660.46509	408.69739	562.46118	-601.56628	361.17090	545.45135	-710.58850	411.82843	509.87268	-682.46875	407.01587	214.68681	-588.70782	458.46945	165.02670	-549.99292	466.51755	161.34309	-489.02631	419.52502	167.42000	-528.12616	377.17310	176.39885	-647.73157	317.06097	207.69328	-598.98358	337.46747	168.37637	-737.82550	337.67810	163.83807	-443.51392	448.49844	146.98262	-450.51532	75.03735	144.20076	-806.36853	82.70125	142.34737	-799.47656	456.83331	145.23840	
3	0.040	-576.45215	266.58984	1831.48022	-636.30219	76.95518	1533.65930	-659.68286	433.18201	1531.23413	-545.86902	260.27762	1350.85645	-531.43835	134.43774	1029.10730	-517.45703	363.05743	1038.00964	-725.18665	256.60071	1042.06396	-585.03204	83.14230	864.90063	-514.67316	153.40866	848.62476	-601.97034	94.43473	738.07764	-649.72681	118.35785	603.48694	-630.81543	226.81667	561.59521	-680.50220	118.15419	541.75604	-601.10822	163.90034	534.16144	-719.54285	118.61221	475.93457	-691.36176	142.87857	213.73547	-614.90967	85.49329	165.66992	-566.58228	66.41714	163.08875	-489.43927	111.24863	158.84511	-537.58411	161.18127	164.66682	-646.02399	221.46677	218.79507	-601.98083	197.75185	170.45972	-729.89917	207.91318	170.76961	-598.26501	442.76486	874.19061	-514.22601	371.92676	842.84027	-622.36505	431.11334	755.03198	-654.50128	409.95547	628.43060	-614.54303	307.21591	575.21466	-660.45184	408.69592	562.41803	-601.48865	361.11026	545.35858	-710.55774	411.88840	509.94263	-682.45221	407.05911	214.71478	-588.61108	458.46240	165.04396	-550.03491	466.46637	161.32790	-489.07358	419.48981	167.39804	-528.15338	377.14633	176.46654	-647.59973	316.95987	207.85791	-598.86145	337.41727	168.44598	-737.79919	337.67331	163.82565	-443.52219	448.50763	146.97511	-450.53735	75.06198	144.13892	-806.37177	82.74648	142.35249	-799.49554	456.87170	145.25104	
4	0.060	-576.68005	266.49405	1831.46851	-636.58881	76.89809	1533.60181	-659.57794	433.12744	1531.25452	-545.88660	260.10730	1350.86633	-531.45416	134.32750	1029.12122	-517.31244	362.92642	1037.96631	-725.15204	256.65869	1042.04260	-585.10107	83.08005	864.89063	-514.65979	153.37265	848.68231	-601.98816	94.37089	738.12726	-649.72083	118.35627	603.45557	-630.97552	226.79184	561.36163	-680.51624	118.16818	541.73792	-601.11072	163.88310	534.16553	-719.55231	118.65159	475.91177	-691.37817	142.90466	213.72594	-614.89941	85.50195	165.68156	-566.60785	66.38641	163.10042	-489.43796	111.25842	158.86205	-537.58124	161.20572	164.69777	-645.85437	221.58145	218.88852	-602.00134	197.76050	170.43779	-729.90350	207.90443	170.77971	-598.06476	442.70303	874.06860	-514.06439	371.80725	842.81714	-622.20129	431.11588	755.05328	-654.37054	409.97000	628.48254	-614.43524	307.15579	575.25317	-660.44458	408.66220	562.40442	-601.43811	361.08966	545.34015	-710.50153	411.91989	509.99643	-682.45050	407.08594	214.72604	-588.56177	458.45923	165.05681	-550.03540	466.46713	161.33690	-489.10043	419.47067	167.38667	-528.15271	377.10437	176.50772	-647.54578	316.95682	207.89679	-598.82904	337.37759	168.46147	-737.79388	337.66769	163.81992	-443.53183	448.52521	146.99005	-450.54236	75.07520	144.12279	-806.39581	82.77790	142.32762	-799.50275	456.94293	145.20499	
